<?xml version="1.0" encoding="utf-8"?>
<!-- Generator: Adobe Illustrator 27.1.1, SVG Export Plug-In . SVG Version: 6.00 Build 0)  -->
<svg version="1.1" id="Layer_1" xmlns="http://www.w3.org/2000/svg" xmlns:xlink="http://www.w3.org/1999/xlink" x="0px" y="0px"
	 viewBox="0 0 300 300" style="enable-background:new 0 0 300 300;" xml:space="preserve">
<style type="text/css">
	.st0{fill:none;stroke:url(#SVGID_1_);stroke-width:0.75;stroke-miterlimit:10;}
	.st1{fill:url(#SVGID_00000040565539656132500620000006461361576701523606_);}
	.st2{fill:url(#SVGID_00000168829666421091913900000017694574280972518046_);}
	.st3{fill:url(#SVGID_00000024680141725342180880000007984177699853155995_);}
	.st4{fill:url(#SVGID_00000116933737107771156860000004504682064982305939_);}
	.st5{fill:url(#SVGID_00000013882191466883389540000002478276935889084343_);}
	.st6{fill:url(#SVGID_00000031167310827689082940000005708515235650801840_);}
</style>
<g>
	
		<linearGradient id="SVGID_1_" gradientUnits="userSpaceOnUse" x1="57.1135" y1="813.8" x2="57.8635" y2="813.8" gradientTransform="matrix(1 0 0 1 0 -698)">
		<stop  offset="0" style="stop-color:#3C56A6"/>
		<stop  offset="1" style="stop-color:#3F59A8"/>
	</linearGradient>
	<line class="st0" x1="57.5" y1="115.9" x2="57.5" y2="115.7"/>
	<g>
		
			<linearGradient id="SVGID_00000020366713303304114640000005325513154062276992_" gradientUnits="userSpaceOnUse" x1="150" y1="848" x2="240" y2="848" gradientTransform="matrix(1 0 0 1 0 -698)">
			<stop  offset="0" style="stop-color:#49AFE3"/>
			<stop  offset="0" style="stop-color:#467CBF"/>
			<stop  offset="1" style="stop-color:#3D59A8"/>
		</linearGradient>
		<path style="fill:url(#SVGID_00000020366713303304114640000005325513154062276992_);" d="M200.9,60H150v39h14.6
			c15.7,0,29.9,6.4,40.2,16.7s16.7,24.6,16.7,40.2c0,31.3-25.6,57-56.9,57H150V240c49.7,0,90-40.3,90-90V99.1
			C240,77.5,222.5,60,200.9,60z"/>
		
			<linearGradient id="SVGID_00000178898465562509693970000004222366126188261786_" gradientUnits="userSpaceOnUse" x1="60" y1="848" x2="150" y2="848" gradientTransform="matrix(1 0 0 1 0 -698)">
			<stop  offset="0" style="stop-color:#3C56A6"/>
			<stop  offset="1" style="stop-color:#3F59A8"/>
		</linearGradient>
		<path style="fill:url(#SVGID_00000178898465562509693970000004222366126188261786_);" d="M78.4,156c0,15.7,6.4,29.9,16.7,40.2
			s24.6,16.7,40.2,16.7H150V240c-49.7,0-90-40.3-90-90c0-24.8,10.1-47.3,26.3-63.6C102.6,70.1,125.1,60,150,60v39h-14.6
			C104.1,99,78.4,124.7,78.4,156z"/>
		<g>
			
				<linearGradient id="SVGID_00000004521900898126062190000009679276121594656174_" gradientUnits="userSpaceOnUse" x1="110.7242" y1="854.4" x2="132.799" y2="854.4" gradientTransform="matrix(1 0 0 1 0 -698)">
				<stop  offset="0" style="stop-color:#49AFE3"/>
				<stop  offset="0" style="stop-color:#467CBF"/>
				<stop  offset="1" style="stop-color:#3D59A8"/>
			</linearGradient>
			<circle style="fill:url(#SVGID_00000004521900898126062190000009679276121594656174_);" cx="121.8" cy="156.4" r="11"/>
			
				<linearGradient id="SVGID_00000118364774722630252940000006098334847076188329_" gradientUnits="userSpaceOnUse" x1="167.2" y1="854.4" x2="189.2748" y2="854.4" gradientTransform="matrix(1 0 0 1 0 -698)">
				<stop  offset="0" style="stop-color:#49AFE3"/>
				<stop  offset="0" style="stop-color:#467CBF"/>
				<stop  offset="1" style="stop-color:#3D59A8"/>
			</linearGradient>
			<circle style="fill:url(#SVGID_00000118364774722630252940000006098334847076188329_);" cx="178.2" cy="156.4" r="11"/>
			<g>
				
					<linearGradient id="SVGID_00000018228545050610686140000003234877303961057701_" gradientUnits="userSpaceOnUse" x1="110.7242" y1="854.4" x2="132.799" y2="854.4" gradientTransform="matrix(1 0 0 1 0 -698)">
					<stop  offset="0" style="stop-color:#49AFE3"/>
					<stop  offset="0" style="stop-color:#467CBF"/>
					<stop  offset="1" style="stop-color:#3D59A8"/>
				</linearGradient>
				<circle style="fill:url(#SVGID_00000018228545050610686140000003234877303961057701_);" cx="121.8" cy="156.4" r="11"/>
				
					<linearGradient id="SVGID_00000064349442161220451770000006485889430302930617_" gradientUnits="userSpaceOnUse" x1="167.2" y1="854.4" x2="189.2748" y2="854.4" gradientTransform="matrix(1 0 0 1 0 -698)">
					<stop  offset="0" style="stop-color:#49AFE3"/>
					<stop  offset="0" style="stop-color:#467CBF"/>
					<stop  offset="1" style="stop-color:#3D59A8"/>
				</linearGradient>
				<circle style="fill:url(#SVGID_00000064349442161220451770000006485889430302930617_);" cx="178.2" cy="156.4" r="11"/>
			</g>
		</g>
	</g>
</g>
</svg>
