<?xml version="1.0" encoding="utf-8"?>
<!-- Svg Vector Icons : http://www.onlinewebfonts.com/icon -->
<!DOCTYPE svg PUBLIC "-//W3C//DTD SVG 1.1//EN" "http://www.w3.org/Graphics/SVG/1.1/DTD/svg11.dtd">
<svg version="1.1" xmlns="http://www.w3.org/2000/svg" xmlns:xlink="http://www.w3.org/1999/xlink" x="0px" y="0px" viewBox="0 0 256 256" enable-background="new 0 0 256 256" xml:space="preserve">
<metadata> Svg Vector Icons : http://www.onlinewebfonts.com/icon </metadata>
<g><g><g><path fill="#ffffff" d="M103.2,35L83.7,60v5.4v5.4l14.8,9.3l14.8,9.3v19.1v19.2H98.4H83.7v8.4v8.4h14.8h14.8V155v10.5l-5.3,0.3c-9,0.5-14,2.4-18.1,6.8c-4.3,4.6-5.9,9.5-5.9,17.7c0,5.1,0.1,6.2,1.6,10.2c3.1,9,7,15.9,19.4,33.5l8.4,12H128h14.7v-50.7v-50.7h14.8h14.8v-8.4v-8.4h-14.8h-14.8l-0.1-19.8l-0.1-19.8l-19.7-12.5C112,68.8,103.1,63,103.1,62.8c0-0.2,3.5-5,7.9-10.5c5.3-6.8,8.1-10.1,8.6-9.9c0.4,0.1,3.9,2.3,7.9,4.7c3.9,2.5,8.5,5.1,10.2,5.9c6.1,2.8,11.9,3.6,15.2,2.2c2.3-0.9,6.6-5,10-9.5c2.7-3.5,9-13.7,9-14.5c0-0.2-2.3-0.4-5.1-0.4c-8.9,0-11.2-1-30.4-12.9c-6.9-4.3-12.9-7.8-13.1-7.8C122.9,10,113.9,21.2,103.2,35z M113.2,199.5v17.1l-1-1.3c-0.5-0.7-2.5-3.7-4.4-6.8c-7.5-12.5-9.1-19.2-5.4-23.3c1.6-1.9,3.8-2.6,8-2.7l2.8,0L113.2,199.5L113.2,199.5z"/></g></g></g>
</svg>